<svg width="131" height="40" viewBox="0 0 131 40" fill="none" xmlns="http://www.w3.org/2000/svg">
<g clip-path="url(#clip0_1_637)">
<path d="M34.9053 29.2681V31.2193C34.0381 30.4605 32.9541 30.0269 31.87 30.0269C30.786 30.0269 29.702 30.4605 28.9432 31.2193C28.1844 31.9781 27.7508 33.0621 27.7508 34.2545C27.7508 35.3385 28.1844 36.4226 28.9432 37.1814C29.702 37.9402 30.786 38.3738 31.87 38.3738C32.412 38.3738 32.9541 38.2654 33.3877 38.0486C33.6045 37.9402 33.9297 37.8318 34.1465 37.615C34.4717 37.3982 34.6885 37.2898 34.9053 37.073V39.1326C33.9297 39.6746 32.9541 39.8914 31.87 39.9998C28.7264 39.9998 26.1248 37.5066 26.1248 34.3629V34.2545C26.1248 32.8453 26.6668 31.5445 27.534 30.4605C28.618 29.1597 30.244 28.4009 31.9784 28.4009C32.9541 28.4009 33.9297 28.7261 34.9053 29.2681Z" fill="white"/>
<path d="M47.3713 37.073H42.6017L41.3009 39.783H39.4581L44.9865 27.9673L50.2982 39.783H48.4554L47.3713 37.073ZM46.6125 35.5554L44.9865 31.7613L43.2521 35.5554H46.6125Z" fill="white"/>
<path d="M56.9106 35.2301V39.783H55.2846V28.6177H57.2358C57.9946 28.6177 58.645 28.6177 59.4038 28.8345C59.8374 28.9429 60.271 29.2681 60.7046 29.5933C61.355 30.2437 61.6802 31.1109 61.6802 31.9781C61.6802 32.9537 61.355 33.8209 60.7046 34.3629C59.9458 35.0133 58.9702 35.3385 57.9946 35.2301H56.9106ZM56.9106 33.7125H57.561C59.0786 33.7125 59.8374 33.1705 59.8374 31.9781C59.8374 30.7857 59.0786 30.2437 57.4526 30.2437H56.9106V33.7125Z" fill="white"/>
<path d="M68.5094 28.6177V39.783H66.8834V28.6177H68.5094Z" fill="white"/>
<path d="M77.832 30.2437V39.783H76.0976V30.2437H73.4959V28.6177H80.3252V30.2437H77.832Z" fill="white"/>
<path d="M91.2737 37.073H86.5041L85.2033 39.783H83.4688L88.9973 27.9673L94.309 39.783H92.4661L91.2737 37.073ZM90.6233 35.5554L88.9973 31.7613L87.2629 35.5554H90.6233Z" fill="white"/>
<path d="M100.921 28.6177V38.157H104.173V39.783H99.187V28.6177H100.921Z" fill="white"/>
<path d="M0 22.8726L4.44444 0L11.7073 16.477L19.2954 0L23.3062 22.8726H20.0542L17.9946 9.9729L11.7073 23.8482L5.63686 9.9729L3.36043 22.8726H0Z" fill="white"/>
<path d="M39.5664 4.66121H31.0027V9.75606H39.2412V12.7913H31.0027V19.9458H39.5664V22.981H27.8591V1.62598H39.5664V4.66121Z" fill="white"/>
<path d="M47.0461 10.0813L55.2846 1.62598H59.6207L49.973 11.2737L59.6207 22.8726H55.2846L47.6965 13.4417L47.0461 14.0921V22.8726H43.7941V1.62598H47.0461V10.0813Z" fill="white"/>
<path d="M86.5041 22.8726V0.108398L102.005 16.3686V1.62601H105.258V24.1734L89.7562 8.02168V22.8726H86.5041Z" fill="white"/>
<path d="M121.518 11.8157H130.298V12.4661C130.298 13.8753 130.081 15.2845 129.756 16.6937C129.323 17.8861 128.781 18.9702 127.913 19.9458C125.962 22.1138 123.252 23.4146 120.325 23.3062C117.507 23.3062 114.688 22.1138 112.737 20.0542C110.678 17.9946 109.485 15.1761 109.485 12.2493C109.485 9.32246 110.569 6.50404 112.737 4.44442C114.797 2.27639 117.615 1.19238 120.651 1.19238C122.277 1.19238 123.903 1.51759 125.312 2.16799C126.829 3.0352 128.239 4.11921 129.431 5.42003L127.155 7.58805C125.745 5.42003 123.361 4.11921 120.759 4.11921C118.591 4.01081 116.531 4.87802 115.122 6.39564C113.604 7.91325 112.737 9.97287 112.846 12.1409C112.737 14.4173 113.713 16.4769 115.339 17.9946C116.748 19.4038 118.591 20.1626 120.542 20.1626C122.06 20.1626 123.577 19.6206 124.77 18.5366C125.962 17.5609 126.721 16.1517 126.938 14.6341H121.626L121.518 11.8157Z" fill="white"/>
<path d="M76.5312 10.19C76.5312 10.19 75.0136 11.0572 77.29 11.7076C79.5664 12.358 83.1436 14.2008 80.7588 16.4772C78.5908 18.4284 72.3035 19.8376 69.2683 23.8485C70.1355 24.0653 71.0027 24.1737 71.9783 24.1737C78.4824 24.1737 83.6856 18.9704 83.6856 12.4664C83.6856 11.3824 83.5773 10.4068 83.2521 9.43115C80.9756 9.21434 78.6992 9.53955 76.5312 10.19Z" fill="#B70004"/>
<path d="M70.4608 16.0435C76.0976 15.7183 77.6152 14.3091 75.2304 13.1167C74.1464 12.683 73.0624 12.0326 71.9784 11.4906C71.0028 10.8402 70.244 8.78061 82.7101 7.58819C80.0001 1.62613 73.0624 -0.975492 67.2087 1.62613C61.3551 4.22776 58.645 11.1654 61.2467 17.1275C61.4635 17.5611 61.6803 18.1031 62.0055 18.5367C64.6071 17.1275 67.4255 16.2603 70.4608 16.0435Z" fill="#B70004"/>
</g>
<defs>
<clipPath id="clip0_1_637">
<rect width="130.298" height="40" fill="white"/>
</clipPath>
</defs>
</svg>
