<svg width="131" height="40" viewBox="0 0 131 40" fill="none" xmlns="http://www.w3.org/2000/svg">
<g clip-path="url(#clip0_45_61)">
<path d="M34.9053 29.2683V31.2195C34.0381 30.4607 32.9541 30.0271 31.87 30.0271C30.786 30.0271 29.702 30.4607 28.9432 31.2195C28.1844 31.9783 27.7508 33.0623 27.7508 34.2548C27.7508 35.3388 28.1844 36.4228 28.9432 37.1816C29.702 37.9404 30.786 38.374 31.87 38.374C32.412 38.374 32.9541 38.2656 33.3877 38.0488C33.6045 37.9404 33.9297 37.832 34.1465 37.6152C34.4717 37.3984 34.6885 37.29 34.9053 37.0732V39.1328C33.9297 39.6748 32.9541 39.8916 31.87 40C28.7264 40 26.1248 37.5068 26.1248 34.3632V34.2548C26.1248 32.8455 26.6668 31.5447 27.534 30.4607C28.618 29.1599 30.244 28.4011 31.9784 28.4011C32.9541 28.4011 33.9297 28.7263 34.9053 29.2683Z" fill="black"/>
<path d="M47.3713 37.0731H42.6017L41.3009 39.7831H39.4581L44.9865 27.9674L50.2982 39.7831H48.4554L47.3713 37.0731ZM46.6125 35.5555L44.9865 31.7614L43.2521 35.5555H46.6125Z" fill="black"/>
<path d="M56.9106 35.2303V39.7831H55.2846V28.6178H57.2358C57.9946 28.6178 58.645 28.6178 59.4038 28.8346C59.8374 28.943 60.271 29.2682 60.7046 29.5934C61.355 30.2438 61.6802 31.1111 61.6802 31.9783C61.6802 32.9539 61.355 33.8211 60.7046 34.3631C59.9458 35.0135 58.9702 35.3387 57.9946 35.2303H56.9106ZM56.9106 33.7127H57.561C59.0786 33.7127 59.8374 33.1707 59.8374 31.9783C59.8374 30.7859 59.0786 30.2438 57.4526 30.2438H56.9106V33.7127Z" fill="black"/>
<path d="M68.5094 28.6178V39.7831H66.8834V28.6178H68.5094Z" fill="black"/>
<path d="M77.832 30.2438V39.7831H76.0976V30.2438H73.4959V28.6178H80.3252V30.2438H77.832Z" fill="black"/>
<path d="M91.2737 37.0731H86.5041L85.2033 39.7831H83.4688L88.9973 27.9674L94.309 39.7831H92.4661L91.2737 37.0731ZM90.6233 35.5555L88.9973 31.7614L87.2629 35.5555H90.6233Z" fill="black"/>
<path d="M100.921 28.6178V38.1571H104.173V39.7831H99.187V28.6178H100.921Z" fill="black"/>
<path d="M0 22.8726L4.44444 0L11.7073 16.477L19.2954 0L23.3062 22.8726H20.0542L17.9946 9.9729L11.7073 23.8482L5.63686 9.9729L3.36043 22.8726H0Z" fill="black"/>
<path d="M39.5664 4.66127H31.0027V9.75612H39.2412V12.7913H31.0027V19.9458H39.5664V22.9811H27.8591V1.62604H39.5664V4.66127Z" fill="black"/>
<path d="M47.0461 10.0813L55.2846 1.62604H59.6207L49.973 11.2737L59.6207 22.8726H55.2846L47.6965 13.4418L47.0461 14.0922V22.8726H43.7941V1.62604H47.0461V10.0813Z" fill="black"/>
<path d="M86.5041 22.8726V0.108337L102.005 16.3685V1.62595H105.258V24.1734L89.7562 8.02162V22.8726H86.5041Z" fill="black"/>
<path d="M121.518 11.8157H130.298V12.4661C130.298 13.8753 130.081 15.2845 129.756 16.6937C129.323 17.8861 128.781 18.9701 127.913 19.9457C125.962 22.1138 123.252 23.4146 120.325 23.3062C117.507 23.3062 114.688 22.1138 112.737 20.0541C110.678 17.9945 109.485 15.1761 109.485 12.2493C109.485 9.32243 110.569 6.50401 112.737 4.44438C114.797 2.27636 117.615 1.19235 120.651 1.19235C122.277 1.19235 123.903 1.51756 125.312 2.16796C126.829 3.03517 128.239 4.11918 129.431 5.41999L127.155 7.58802C125.745 5.41999 123.361 4.11918 120.759 4.11918C118.591 4.01078 116.531 4.87799 115.122 6.3956C113.604 7.91322 112.737 9.97284 112.846 12.1409C112.737 14.4173 113.713 16.4769 115.339 17.9945C116.748 19.4037 118.591 20.1625 120.542 20.1625C122.06 20.1625 123.577 19.6205 124.77 18.5365C125.962 17.5609 126.721 16.1517 126.938 14.6341H121.626L121.518 11.8157Z" fill="black"/>
<path d="M76.5311 10.1896C76.5311 10.1896 75.0135 11.0568 77.29 11.7072C79.5664 12.3576 83.1436 14.2004 80.7588 16.4768C78.5908 18.4281 72.3035 19.8373 69.2683 23.8481C70.1355 24.0649 71.0027 24.1733 71.9783 24.1733C78.4824 24.1733 83.6856 18.9701 83.6856 12.466C83.6856 11.382 83.5772 10.4064 83.252 9.43078C80.9756 9.21398 78.6992 9.53918 76.5311 10.1896Z" fill="#B70004"/>
<path d="M70.4608 16.0434C76.0976 15.7182 77.6152 14.309 75.2304 13.1166C74.1464 12.683 73.0624 12.0326 71.9784 11.4906C71.0028 10.8402 70.244 8.78055 82.7101 7.58813C80.0001 1.62607 73.0624 -0.975553 67.2087 1.62607C61.3551 4.2277 58.645 11.1654 61.2467 17.1274C61.4635 17.561 61.6803 18.103 62.0055 18.5366C64.6071 17.1274 67.4255 16.2602 70.4608 16.0434Z" fill="#B70004"/>
</g>
<defs>
<clipPath id="clip0_45_61">
<rect width="130.298" height="40" fill="white"/>
</clipPath>
</defs>
</svg>
